<svg width="50" height="51" viewBox="0 0 50 51" fill="none" xmlns="http://www.w3.org/2000/svg">
<g id="Iconsax/Bold/arrowcircleright2">
<path id="Vector" d="M25.0001 4.68842C13.5001 4.68842 4.16675 14.0217 4.16675 25.5218C4.16675 37.0218 13.5001 46.3551 25.0001 46.3551C36.5001 46.3551 45.8334 37.0218 45.8334 25.5218C45.8334 14.0217 36.5001 4.68842 25.0001 4.68842ZM33.3959 26.6259L27.1459 32.8759C26.8334 33.1884 26.4376 33.3343 26.0417 33.3343C25.6459 33.3343 25.2501 33.1884 24.9376 32.8759C24.647 32.5819 24.484 32.1851 24.484 31.7718C24.484 31.3584 24.647 30.9616 24.9376 30.6676L28.5209 27.0843H17.7084C16.8542 27.0843 16.1459 26.3759 16.1459 25.5218C16.1459 24.6676 16.8542 23.9592 17.7084 23.9592H28.5209L24.9376 20.3759C24.647 20.0819 24.484 19.6851 24.484 19.2717C24.484 18.8584 24.647 18.4616 24.9376 18.1676C25.5417 17.5634 26.5417 17.5634 27.1459 18.1676L33.3959 24.4176C34.0001 25.0218 34.0001 26.0217 33.3959 26.6259Z" fill="#FA8352"/>
</g>
</svg>
